<svg xmlns="http://www.w3.org/2000/svg" width="249" height="52.872" viewBox="0 0 249 52.872">
    <defs>
        <style>
            .cls-1{isolation:isolate}.cls-2{fill:#003964}.cls-7{fill:#74abd2}
        </style>
    </defs>
    <g id="Group_27" transform="translate(-806.198 -1165.684)">
        <g id="Group_26" transform="translate(806.198 1165.684)">
            <g id="Building_Blocks" class="cls-1" transform="translate(29.527)">
                <g id="Group_68322" class="cls-1">
                    <path id="Path_835" d="M843.884 1178.809a5.269 5.269 0 0 1 1.049 3.366 4.843 4.843 0 0 1-2.051 4.191 10.2 10.2 0 0 1-5.97 1.466h-10v-20.951h9.4a9.266 9.266 0 0 1 5.551 1.437 4.661 4.661 0 0 1 1.96 3.981 5.164 5.164 0 0 1-.762 2.843 4.971 4.971 0 0 1-2.049 1.826 5.368 5.368 0 0 1 2.872 1.841zm-13.976-9.5v6.7h6.134a6.239 6.239 0 0 0 3.549-.852 3.137 3.137 0 0 0 0-5 6.228 6.228 0 0 0-3.549-.853zm10.715 15.264a2.917 2.917 0 0 0 1.287-2.634q0-3.5-5.118-3.5h-6.884v6.974h6.884a7.08 7.08 0 0 0 3.831-.843z" class="cls-2" transform="translate(-826.915 -1165.175)"/>
                    <path id="Path_836" d="M856.8 1170.451v15.863h-2.724v-2.394a5.772 5.772 0 0 1-2.29 1.9 7.126 7.126 0 0 1-3.1.674 6.921 6.921 0 0 1-5-1.75 6.833 6.833 0 0 1-1.826-5.164v-9.128h2.873v8.8a4.929 4.929 0 0 0 1.108 3.486 4.133 4.133 0 0 0 3.174 1.183 4.735 4.735 0 0 0 3.59-1.377 5.4 5.4 0 0 0 1.317-3.891v-8.2z" class="cls-2" transform="translate(-820.557 -1163.657)"/>
                    <path id="Path_837" d="M855.839 1168.886a1.763 1.763 0 0 1-.554-1.317 1.817 1.817 0 0 1 .554-1.333 1.885 1.885 0 0 1 1.391-.553 1.949 1.949 0 0 1 1.392.524 1.721 1.721 0 0 1 .554 1.3 1.854 1.854 0 0 1-.554 1.363 1.892 1.892 0 0 1-1.392.553 1.914 1.914 0 0 1-1.391-.537zm-.044 3.592h2.872v15.863H855.8z" class="cls-2" transform="translate(-814.851 -1165.684)"/>
                    <path id="Path_838" d="M860.955 1166h2.873v22.208h-2.873z" class="cls-2" transform="translate(-812.44 -1165.55)"/>
                    <path id="Path_839" d="M881.671 1166v22.208h-2.754v-2.514a6.221 6.221 0 0 1-2.424 2.005 7.523 7.523 0 0 1-3.234.688 8.327 8.327 0 0 1-4.129-1.018 7.268 7.268 0 0 1-2.859-2.859 9.164 9.164 0 0 1 0-8.455 7.313 7.313 0 0 1 2.859-2.844 8.327 8.327 0 0 1 4.129-1.018 7.59 7.59 0 0 1 3.143.645 6.089 6.089 0 0 1 2.4 1.9V1166zm-5.449 19.169a4.908 4.908 0 0 0 1.917-1.976 6.538 6.538 0 0 0 0-5.835 4.829 4.829 0 0 0-1.917-1.961 5.759 5.759 0 0 0-5.462 0 4.949 4.949 0 0 0-1.914 1.961 6.384 6.384 0 0 0 0 5.835 5.032 5.032 0 0 0 1.914 1.976 5.647 5.647 0 0 0 5.462 0z" class="cls-2" transform="translate(-810.619 -1165.55)"/>
                    <path id="Path_840" d="M880.24 1168.886a1.762 1.762 0 0 1-.553-1.317 1.815 1.815 0 0 1 .553-1.333 1.886 1.886 0 0 1 1.392-.553 1.947 1.947 0 0 1 1.391.524 1.721 1.721 0 0 1 .554 1.3 1.854 1.854 0 0 1-.554 1.363 1.889 1.889 0 0 1-1.391.553 1.914 1.914 0 0 1-1.392-.537zm-.044 3.592h2.873v15.863H880.2z" class="cls-2" transform="translate(-804.475 -1165.684)"/>
                    <path id="Path_841" d="M898.631 1172.1a6.892 6.892 0 0 1 1.781 5.134v9.129h-2.875v-8.8a4.87 4.87 0 0 0-1.106-3.472 4.171 4.171 0 0 0-3.174-1.167 4.951 4.951 0 0 0-3.681 1.361 5.325 5.325 0 0 0-1.347 3.906v8.171h-2.873V1170.5h2.754v2.394a5.6 5.6 0 0 1 2.35-1.886 8.218 8.218 0 0 1 3.368-.658 6.558 6.558 0 0 1 4.803 1.75z" class="cls-2" transform="translate(-802.064 -1163.701)"/>
                    <path id="Path_842" d="M914.786 1170.5v13.7q0 4.161-2.065 6.151t-6.164 1.99a14.745 14.745 0 0 1-4.281-.613 8.492 8.492 0 0 1-3.292-1.751l1.377-2.215a8.143 8.143 0 0 0 2.739 1.512 10.4 10.4 0 0 0 3.366.553 5.651 5.651 0 0 0 4.116-1.317 5.417 5.417 0 0 0 1.333-4.01v-1.257a6.351 6.351 0 0 1-2.5 1.84 8.3 8.3 0 0 1-3.218.615 8.668 8.668 0 0 1-4.115-.972 7.229 7.229 0 0 1-2.887-2.725 8.141 8.141 0 0 1 0-7.99 7.125 7.125 0 0 1 2.887-2.709 8.779 8.779 0 0 1 4.115-.958 8.408 8.408 0 0 1 3.338.658 6.2 6.2 0 0 1 2.528 1.945v-2.447zm-5.461 12.032a4.9 4.9 0 0 0 1.945-1.84 5.142 5.142 0 0 0 .7-2.679 4.859 4.859 0 0 0-1.528-3.727 6.159 6.159 0 0 0-7.87 0 4.853 4.853 0 0 0-1.527 3.727 5.14 5.14 0 0 0 .7 2.679 4.879 4.879 0 0 0 1.945 1.84 6.34 6.34 0 0 0 5.627 0z" class="cls-2" transform="translate(-796.625 -1163.701)"/>
                </g>
                <g id="Group_68323" class="cls-1" transform="translate(127.558 0.449)">
                    <path id="Path_843" d="M933.385 1178.809a5.278 5.278 0 0 1 1.049 3.366 4.846 4.846 0 0 1-2.051 4.191 10.208 10.208 0 0 1-5.97 1.466h-10v-20.951h9.4a9.264 9.264 0 0 1 5.551 1.437 4.662 4.662 0 0 1 1.961 3.981 5.176 5.176 0 0 1-.763 2.843 4.978 4.978 0 0 1-2.049 1.826 5.368 5.368 0 0 1 2.872 1.841zm-13.976-9.5v6.7h6.134a6.234 6.234 0 0 0 3.547-.852 3.134 3.134 0 0 0 0-5 6.223 6.223 0 0 0-3.547-.853zm10.714 15.264a2.918 2.918 0 0 0 1.288-2.634q0-3.5-5.12-3.5h-6.882v6.974h6.882a7.076 7.076 0 0 0 3.832-.843z" class="cls-2" transform="translate(-916.415 -1165.624)"/>
                    <path id="Path_844" d="M931.472 1166h2.872v22.208h-2.872z" class="cls-2" transform="translate(-910.012 -1165.999)"/>
                    <path id="Path_845" d="M939.765 1185.491a7.586 7.586 0 0 1-2.947-2.889 8.736 8.736 0 0 1 0-8.349 7.5 7.5 0 0 1 2.947-2.875 8.723 8.723 0 0 1 4.251-1.032 8.633 8.633 0 0 1 4.234 1.032 7.532 7.532 0 0 1 2.933 2.875 8.726 8.726 0 0 1 0 8.349 7.618 7.618 0 0 1-2.933 2.889 8.517 8.517 0 0 1-4.234 1.048 8.606 8.606 0 0 1-4.251-1.048zm6.991-2.171a4.962 4.962 0 0 0 1.9-1.975 6.526 6.526 0 0 0 0-5.835 4.877 4.877 0 0 0-1.9-1.961 5.792 5.792 0 0 0-5.478 0 4.96 4.96 0 0 0-1.916 1.961 6.408 6.408 0 0 0 0 5.835 5.047 5.047 0 0 0 1.916 1.975 5.679 5.679 0 0 0 5.478 0z" class="cls-2" transform="translate(-908.191 -1164.151)"/>
                    <path id="Path_846" d="M952.6 1185.491a7.659 7.659 0 0 1-2.979-2.889 8.624 8.624 0 0 1 0-8.349 7.574 7.574 0 0 1 2.979-2.875 8.923 8.923 0 0 1 4.324-1.032 8.3 8.3 0 0 1 3.845.868 6.192 6.192 0 0 1 2.62 2.514l-2.185 1.407a4.879 4.879 0 0 0-1.856-1.706 5.3 5.3 0 0 0-2.454-.569 5.677 5.677 0 0 0-2.8.689 4.906 4.906 0 0 0-1.945 1.961 5.921 5.921 0 0 0-.7 2.917 6 6 0 0 0 .7 2.949 4.905 4.905 0 0 0 1.945 1.96 5.679 5.679 0 0 0 2.8.689 5.278 5.278 0 0 0 2.454-.569 4.88 4.88 0 0 0 1.856-1.706l2.185 1.377a6.29 6.29 0 0 1-2.62 2.53 8.187 8.187 0 0 1-3.845.882 8.8 8.8 0 0 1-4.324-1.048z" class="cls-2" transform="translate(-902.752 -1164.151)"/>
                    <path id="Path_847" d="M967.036 1180.816l-3.291 3.052v4.34h-2.873V1166h2.873v14.247l8.65-7.9h3.472l-6.674 6.554 7.331 9.308h-3.53z" class="cls-2" transform="translate(-897.51 -1165.999)"/>
                    <path id="Path_848" fill="#004876" d="M974.312 1186.015a8.219 8.219 0 0 1-2.813-1.333l1.2-2.275a8.592 8.592 0 0 0 2.544 1.2 10.473 10.473 0 0 0 3.023.449q3.771 0 3.771-2.155a1.4 1.4 0 0 0-.509-1.137 3.209 3.209 0 0 0-1.271-.613q-.765-.194-2.171-.435a21.441 21.441 0 0 1-3.127-.687 4.832 4.832 0 0 1-2.081-1.318 3.663 3.663 0 0 1-.87-2.6 4.062 4.062 0 0 1 1.8-3.456 8.033 8.033 0 0 1 4.819-1.3 13.349 13.349 0 0 1 3.173.389 8.532 8.532 0 0 1 2.6 1.047l-1.229 2.275a8.248 8.248 0 0 0-4.578-1.257 5.3 5.3 0 0 0-2.785.6 1.807 1.807 0 0 0-.956 1.586 1.513 1.513 0 0 0 .539 1.227 3.392 3.392 0 0 0 1.331.658q.793.21 2.23.479a24.058 24.058 0 0 1 3.1.7 4.624 4.624 0 0 1 2.021 1.271 3.544 3.544 0 0 1 .838 2.514 3.959 3.959 0 0 1-1.842 3.426 8.68 8.68 0 0 1-5.012 1.273 13.339 13.339 0 0 1-3.745-.528z" transform="translate(-892.992 -1164.151)"/>
                </g>
            </g>
            <g id="Rectangle_112" transform="translate(12.26 1.736)">
                <path id="Rectangle_469" fill="#007cb5" d="M0 0H9.684V9.684H0z"/>
            </g>
            <g id="Rectangle_113" transform="translate(12.26 13.758)">
                <path id="Rectangle_470" fill="#2d7ead" d="M0 0H9.684V9.684H0z"/>
            </g>
            <g id="Rectangle_114" transform="translate(0 1.736)">
                <path id="Rectangle_471" fill="#00649a" d="M0 0H9.684V9.684H0z"/>
            </g>
            <g id="Rectangle_115" transform="translate(0 13.758)">
                <path id="Rectangle_472" d="M0 0H9.684V9.684H0z" class="cls-7"/>
            </g>
        </g>
        <g id="Path_1" transform="translate(816.537 1189.919)">
            <path id="Path_849" d="M1051.283 1190.964H813.452v-8.276h1.425v6.85h236.406z" class="cls-7" transform="translate(-813.452 -1182.689)"/>
        </g>
        <g id="of_Equitable_Learning" class="cls-1" transform="translate(883.819 1203.552)">
            <g id="Group_68324" class="cls-1">
                <path id="Path_850" d="M862.762 1202.629a3.982 3.982 0 0 1-1.545-1.512 4.568 4.568 0 0 1 0-4.373 3.926 3.926 0 0 1 1.545-1.506 4.839 4.839 0 0 1 4.444 0 3.94 3.94 0 0 1 1.536 1.506 4.567 4.567 0 0 1 0 4.373 4 4 0 0 1-1.536 1.512 4.762 4.762 0 0 1-4.444 0zm3.66-1.136a2.589 2.589 0 0 0 .995-1.036 3.417 3.417 0 0 0 0-3.056 2.569 2.569 0 0 0-.995-1.027 3.045 3.045 0 0 0-2.869 0 2.617 2.617 0 0 0-1 1.027 3.358 3.358 0 0 0 0 3.056 2.637 2.637 0 0 0 1 1.036 2.982 2.982 0 0 0 2.869 0z" class="cls-2" transform="translate(-860.66 -1191.215)"/>
                <path id="Path_851" d="M870.232 1195.05v.721h2.414v1.239h-2.382v7.071h-1.506v-7.071h-1.41v-1.239h1.41v-.738a2.65 2.65 0 0 1 .722-1.96 2.726 2.726 0 0 1 2.022-.72 3.453 3.453 0 0 1 .941.124 2.254 2.254 0 0 1 .751.362l-.453 1.145a1.871 1.871 0 0 0-1.162-.392q-1.347.001-1.347 1.458z" class="cls-2" transform="translate(-857.816 -1192.212)"/>
                <path id="Path_852" d="M883.146 1202.493v1.364h-7.966v-10.976h7.745v1.364h-6.177v3.371h5.5v1.334h-5.5v3.543z" class="cls-2" transform="translate(-854.486 -1191.988)"/>
                <path id="Path_853" d="M890.387 1194.776v11.349h-1.5v-4.3a3.412 3.412 0 0 1-1.263 1 3.882 3.882 0 0 1-1.638.345 4.354 4.354 0 0 1-2.163-.535 3.833 3.833 0 0 1-1.5-1.5 4.8 4.8 0 0 1 0-4.43 3.849 3.849 0 0 1 1.5-1.489 4.383 4.383 0 0 1 2.163-.532 4.032 4.032 0 0 1 1.693.351 3.238 3.238 0 0 1 1.27 1.045v-1.317zm-2.853 6.717a2.563 2.563 0 0 0 1-1.036 3.144 3.144 0 0 0 .36-1.528 3.067 3.067 0 0 0-.368-1.519 2.654 2.654 0 0 0-1-1.027 2.778 2.778 0 0 0-1.42-.368 2.848 2.848 0 0 0-1.432.359 2.612 2.612 0 0 0-1 1.027 3.359 3.359 0 0 0 0 3.056 2.632 2.632 0 0 0 1 1.036 2.962 2.962 0 0 0 2.859 0z" class="cls-2" transform="translate(-851.679 -1191.215)"/>
                <path id="Path_854" d="M897.59 1194.752v8.309h-1.427v-1.256a3.036 3.036 0 0 1-1.2 1 3.767 3.767 0 0 1-1.623.353 3.621 3.621 0 0 1-2.618-.918 3.577 3.577 0 0 1-.955-2.7v-4.782h1.5v4.609a2.586 2.586 0 0 0 .58 1.827 2.173 2.173 0 0 0 1.663.617 2.478 2.478 0 0 0 1.881-.721 2.834 2.834 0 0 0 .688-2.036v-4.3z" class="cls-2" transform="translate(-848.283 -1191.192)"/>
                <path id="Path_855" d="M897.372 1193.933a.927.927 0 0 1-.291-.691.948.948 0 0 1 .291-.7.985.985 0 0 1 .728-.292 1.016 1.016 0 0 1 .73.275.9.9 0 0 1 .291.683.991.991 0 0 1-1.02 1 1 1 0 0 1-.729-.275zm-.023 1.881h1.5v8.309h-1.5z" class="cls-2" transform="translate(-845.173 -1192.254)"/>
                <path id="Path_856" d="M905.364 1203.117a2.228 2.228 0 0 1-.815.432 3.4 3.4 0 0 1-1 .149 2.654 2.654 0 0 1-1.943-.676 2.564 2.564 0 0 1-.691-1.927v-4.562H899.5v-1.233h1.411v-1.82h1.505v1.82h2.384v1.239h-2.383v4.5a1.466 1.466 0 0 0 .336 1.036 1.26 1.26 0 0 0 .965.359 1.821 1.821 0 0 0 1.176-.39z" class="cls-2" transform="translate(-844.144 -1191.735)"/>
                <path id="Path_857" d="M910.75 1195.544a3.266 3.266 0 0 1 .918 2.525v5.015h-1.427v-1.1a2.4 2.4 0 0 1-1.073.885 4.126 4.126 0 0 1-1.655.305 3.459 3.459 0 0 1-2.235-.676 2.162 2.162 0 0 1-.839-1.77 2.189 2.189 0 0 1 .8-1.766 3.956 3.956 0 0 1 2.54-.664h2.383v-.3a1.918 1.918 0 0 0-.564-1.489 2.373 2.373 0 0 0-1.662-.519 4.425 4.425 0 0 0-1.443.242 3.828 3.828 0 0 0-1.191.651l-.629-1.127a4.587 4.587 0 0 1 1.538-.792 6.492 6.492 0 0 1 1.9-.274 3.757 3.757 0 0 1 2.639.854zm-1.5 6.09a2.193 2.193 0 0 0 .911-1.09v-1.159h-2.32q-1.913 0-1.913 1.284a1.16 1.16 0 0 0 .486.988 2.2 2.2 0 0 0 1.347.362 2.787 2.787 0 0 0 1.491-.385z" class="cls-2" transform="translate(-842.044 -1191.215)"/>
                <path id="Path_858" d="M918.038 1196.2a3.847 3.847 0 0 1 1.5 1.489 4.811 4.811 0 0 1 0 4.43 3.828 3.828 0 0 1-1.5 1.5 4.354 4.354 0 0 1-2.164.534 3.945 3.945 0 0 1-1.693-.36 3.266 3.266 0 0 1-1.27-1.051v1.317h-1.443v-11.639h1.505v4.58a3.209 3.209 0 0 1 1.254-.993 3.952 3.952 0 0 1 1.646-.338 4.384 4.384 0 0 1 2.165.531zm-.854 6.264a2.656 2.656 0 0 0 1-1.036 3.357 3.357 0 0 0 0-3.056 2.634 2.634 0 0 0-1-1.028 3.032 3.032 0 0 0-2.862 0 2.552 2.552 0 0 0-1 1.028 3.416 3.416 0 0 0 0 3.056 2.572 2.572 0 0 0 1 1.036 2.966 2.966 0 0 0 2.862 0z" class="cls-2" transform="translate(-839.055 -1192.183)"/>
                <path id="Path_859" d="M918.971 1192.42h1.505v11.633h-1.505z" class="cls-2" transform="translate(-835.865 -1192.183)"/>
                <path id="Path_860" d="M929.747 1199.43h-6.741a2.613 2.613 0 0 0 .963 1.764 3.145 3.145 0 0 0 2.047.666 3.087 3.087 0 0 0 2.4-1l.831.971a3.635 3.635 0 0 1-1.4 1 5.284 5.284 0 0 1-4.209-.2 3.834 3.834 0 0 1-1.575-1.512 4.334 4.334 0 0 1-.557-2.2 4.409 4.409 0 0 1 .54-2.179 3.878 3.878 0 0 1 1.491-1.512 4.218 4.218 0 0 1 2.139-.54 4.142 4.142 0 0 1 2.124.54 3.8 3.8 0 0 1 1.458 1.512 4.61 4.61 0 0 1 .526 2.226 4.141 4.141 0 0 1-.037.464zm-5.888-2.806a2.655 2.655 0 0 0-.854 1.726h5.33a2.676 2.676 0 0 0-.855-1.717 2.81 2.81 0 0 0-3.621-.009z" class="cls-2" transform="translate(-834.788 -1191.215)"/>
                <path id="Path_861" d="M931.885 1192.881h1.566v9.612h5.942v1.364h-7.508z" class="cls-2" transform="translate(-830.373 -1191.988)"/>
                <path id="Path_862" d="M945.9 1199.43h-6.741a2.607 2.607 0 0 0 .963 1.764 3.146 3.146 0 0 0 2.045.666 3.088 3.088 0 0 0 2.4-1l.831.971a3.664 3.664 0 0 1-1.4 1 5.287 5.287 0 0 1-4.21-.2 3.847 3.847 0 0 1-1.576-1.512 4.348 4.348 0 0 1-.557-2.2 4.409 4.409 0 0 1 .542-2.179 3.883 3.883 0 0 1 1.489-1.512 4.23 4.23 0 0 1 2.141-.54 4.138 4.138 0 0 1 2.124.54 3.788 3.788 0 0 1 1.458 1.512 4.608 4.608 0 0 1 .526 2.226 4.512 4.512 0 0 1-.035.464zm-5.886-2.806a2.656 2.656 0 0 0-.855 1.726h5.329a2.665 2.665 0 0 0-.852-1.717 2.81 2.81 0 0 0-3.621-.009z" class="cls-2" transform="translate(-827.922 -1191.215)"/>
                <path id="Path_863" d="M950.614 1195.544a3.272 3.272 0 0 1 .918 2.525v5.015H950.1v-1.1a2.408 2.408 0 0 1-1.075.885 4.113 4.113 0 0 1-1.653.305 3.45 3.45 0 0 1-2.234-.676 2.158 2.158 0 0 1-.839-1.77 2.186 2.186 0 0 1 .8-1.766 3.958 3.958 0 0 1 2.54-.664h2.383v-.3a1.917 1.917 0 0 0-.563-1.489 2.376 2.376 0 0 0-1.659-.509 4.418 4.418 0 0 0-1.443.242 3.848 3.848 0 0 0-1.193.651l-.626-1.127a4.577 4.577 0 0 1 1.536-.792 6.486 6.486 0 0 1 1.9-.274 3.755 3.755 0 0 1 2.64.844zm-1.5 6.09a2.187 2.187 0 0 0 .908-1.09v-1.159H947.7q-1.911 0-1.911 1.284a1.158 1.158 0 0 0 .485.988 2.212 2.212 0 0 0 1.349.362 2.792 2.792 0 0 0 1.494-.385z" class="cls-2" transform="translate(-825.092 -1191.215)"/>
                <path id="Path_864" d="M953.935 1195.073a4.207 4.207 0 0 1 1.866-.376v1.457c-.084-.009-.2-.014-.345-.014a2.527 2.527 0 0 0-1.922.73 2.884 2.884 0 0 0-.7 2.077v4.139h-1.505v-8.309h1.443v1.394a2.566 2.566 0 0 1 1.163-1.098z" class="cls-2" transform="translate(-822.103 -1191.215)"/>
                <path id="Path_865" d="M962.72 1195.613a3.613 3.613 0 0 1 .932 2.69v4.782h-1.505v-4.609a2.55 2.55 0 0 0-.58-1.819 2.178 2.178 0 0 0-1.662-.612 2.59 2.59 0 0 0-1.93.713 2.792 2.792 0 0 0-.7 2.045v4.281h-1.505v-8.309h1.442v1.253a2.9 2.9 0 0 1 1.231-.987 4.278 4.278 0 0 1 1.763-.345 3.433 3.433 0 0 1 2.514.917z" class="cls-2" transform="translate(-820.218 -1191.215)"/>
                <path id="Path_866" d="M963.36 1193.933a.932.932 0 0 1-.291-.691.954.954 0 0 1 .291-.7.984.984 0 0 1 .728-.292 1.017 1.017 0 0 1 .73.275.9.9 0 0 1 .291.683.968.968 0 0 1-.291.713.982.982 0 0 1-.73.289 1 1 0 0 1-.728-.277zm-.023 1.881h1.5v8.309h-1.5z" class="cls-2" transform="translate(-817.112 -1192.254)"/>
                <path id="Path_867" d="M973.279 1195.613a3.608 3.608 0 0 1 .932 2.69v4.782h-1.5v-4.609a2.549 2.549 0 0 0-.58-1.819 2.181 2.181 0 0 0-1.663-.612 2.587 2.587 0 0 0-1.928.713 2.792 2.792 0 0 0-.7 2.045v4.281h-1.506v-8.309h1.444v1.253a2.907 2.907 0 0 1 1.23-.987 4.283 4.283 0 0 1 1.763-.345 3.428 3.428 0 0 1 2.508.917z" class="cls-2" transform="translate(-815.728 -1191.215)"/>
                <path id="Path_868" d="M982.028 1194.776v7.179a4.29 4.29 0 0 1-1.083 3.224 4.5 4.5 0 0 1-3.229 1.041 7.742 7.742 0 0 1-2.242-.319 4.461 4.461 0 0 1-1.725-.919l.721-1.16a4.243 4.243 0 0 0 1.435.792 5.472 5.472 0 0 0 1.763.289 2.961 2.961 0 0 0 2.156-.69 2.836 2.836 0 0 0 .7-2.1v-.659a3.332 3.332 0 0 1-1.308.962 4.351 4.351 0 0 1-1.685.323 4.535 4.535 0 0 1-2.156-.51 3.787 3.787 0 0 1-1.513-1.428 4.268 4.268 0 0 1 0-4.183 3.729 3.729 0 0 1 1.513-1.42 4.6 4.6 0 0 1 2.156-.5 4.391 4.391 0 0 1 1.747.345 3.244 3.244 0 0 1 1.325 1.019v-1.286zm-2.862 6.3a2.55 2.55 0 0 0 1.019-.966 2.689 2.689 0 0 0 .369-1.4 2.543 2.543 0 0 0-.8-1.951 3.229 3.229 0 0 0-4.123 0 2.542 2.542 0 0 0-.8 1.951 2.691 2.691 0 0 0 .369 1.4 2.559 2.559 0 0 0 1.019.966 3.321 3.321 0 0 0 2.947 0z" class="cls-2" transform="translate(-812.757 -1191.215)"/>
            </g>
        </g>
    </g>
</svg>
